<svg width="3122" height="568" viewBox="0 0 3122 568" fill="none" xmlns="http://www.w3.org/2000/svg">
<rect x="0.197021" y="0.170898" width="3121.04" height="567.245" rx="88.0743" fill="#14213D"/>
<path fill-rule="evenodd" clip-rule="evenodd" d="M340 265.974C311.032 268.903 285.365 286.469 272.43 312.219C270.219 316.619 266.98 324.674 267.294 324.988C267.382 325.075 268.934 323.65 270.745 321.822C282.314 310.14 298.894 302.423 316.837 300.37C323.633 299.592 335.249 300.085 341.654 301.423C354.864 304.184 366.02 309.749 376.091 318.604C377.756 320.068 378.645 320.595 378.993 320.326C379.462 319.962 392.983 309.304 403.403 301.085C409.951 295.919 411.545 294.573 411.545 294.206C411.545 293.542 403.397 285.691 400.803 283.856C400.014 283.297 399.11 282.601 398.795 282.309C397.615 281.214 393.417 278.535 389.419 276.326C379.629 270.918 368.622 267.393 357.573 266.129C354.121 265.734 343.32 265.639 340 265.974Z" fill="#8EBEE0"/>
<path fill-rule="evenodd" clip-rule="evenodd" d="M308.827 321.281C290.225 324.972 275.2 340.251 270.927 359.819C269.849 364.752 269.765 373.545 270.749 378.304C273.305 390.664 279.282 401.307 289.95 412.492C295.911 418.743 302.741 423.664 311.257 427.845C317.556 430.939 323.532 432.989 330.583 434.477C337.436 435.924 350.456 436.32 358.09 435.314C371.191 433.588 384.221 428.719 394.952 421.541C400.697 417.697 407.814 411.683 410.52 408.384L411.922 406.675L407.287 403.009C404.738 400.993 398.093 395.72 392.521 391.292C377.823 379.614 378.905 380.381 377.886 380.914C377.405 381.166 375.803 382.392 374.324 383.641C371.074 386.386 363.794 390.106 359.229 391.354C354.666 392.602 342.483 392.716 338.345 391.55C325.191 387.845 315.41 379.685 309.935 367.848C307.405 362.379 306.395 357.634 306.351 351.002C306.298 343.254 307.412 338.286 310.682 331.68C312.23 328.554 316.002 323.071 317.391 321.931C317.77 321.619 318.08 321.2 318.08 321.001C318.08 320.456 312.064 320.638 308.827 321.281Z" fill="#8EBEE0"/>
<rect x="225.894" y="245.725" width="26.1484" height="210.193" fill="#8EBEE0"/>
<rect x="252.042" y="429.769" width="26.1484" height="72.4109" transform="rotate(90 252.042 429.769)" fill="#8EBEE0"/>
<rect x="339.409" y="166.828" width="26.1484" height="211.815" transform="rotate(60 339.409 166.828)" fill="#8EBEE0"/>
<rect width="26.1484" height="211.815" transform="matrix(-0.5 0.866025 0.866025 0.5 339.409 166.828)" fill="#8EBEE0"/>
<rect x="340.993" y="111.669" width="26.1484" height="239.068" transform="rotate(60 340.993 111.669)" fill="#8EBEE0"/>
<rect width="26.1484" height="239.068" transform="matrix(-0.5 0.866025 0.866025 0.5 340.992 111.669)" fill="#8EBEE0"/>
<rect width="26.1484" height="210.193" transform="matrix(-1 0 0 1 452.923 245.725)" fill="#8EBEE0"/>
<rect width="26.1484" height="72.4109" transform="matrix(4.37114e-08 1 1 -4.37114e-08 426.774 429.769)" fill="#8EBEE0"/>
<path d="M729.397 407.761C704.77 407.761 685.994 402.172 673.07 390.994C660.145 379.641 653.683 362.961 653.683 340.955V284.89C653.683 262.883 660.145 246.291 673.07 235.113C685.994 223.76 704.77 218.084 729.397 218.084C746.513 218.084 760.485 220.966 771.314 226.729C782.317 232.318 791.05 240.789 797.513 252.142L771.052 270.481C765.638 262.097 759.961 256.072 754.023 252.404C748.259 248.736 740.051 246.902 729.397 246.902C715.948 246.902 706.08 250.133 699.792 256.596C693.679 262.883 690.623 272.315 690.623 284.89V340.955C690.623 353.53 693.679 363.049 699.792 369.511C706.08 375.799 715.948 378.943 729.397 378.943C740.924 378.943 749.831 377.021 756.119 373.179C762.581 369.162 768.345 362.787 773.41 354.054L799.609 373.441C794.019 381.475 788.256 387.937 782.317 392.828C776.379 397.718 769.131 401.473 760.573 404.093C752.189 406.538 741.797 407.761 729.397 407.761ZM871.904 407.761C853.74 407.761 839.767 403.569 829.986 395.186C820.206 386.802 815.315 374.838 815.315 359.294V326.808C815.315 311.263 820.206 299.299 829.986 290.916C839.767 282.532 853.74 278.34 871.904 278.34C890.068 278.34 904.041 282.532 913.822 290.916C923.602 299.299 928.493 311.263 928.493 326.808V359.294C928.493 374.838 923.602 386.802 913.822 395.186C904.041 403.569 890.068 407.761 871.904 407.761ZM871.904 381.562C879.065 381.562 884.567 379.641 888.409 375.799C892.426 371.956 894.435 366.455 894.435 359.294V326.808C894.435 319.647 892.426 314.145 888.409 310.302C884.567 306.46 879.065 304.539 871.904 304.539C864.743 304.539 859.154 306.46 855.137 310.302C851.295 314.145 849.373 319.647 849.373 326.808V359.294C849.373 366.455 851.295 371.956 855.137 375.799C859.154 379.641 864.743 381.562 871.904 381.562ZM1097.1 278.34C1109.85 278.34 1119.54 282.008 1126.18 289.344C1132.99 296.679 1136.4 307.159 1136.4 320.782V404.617H1102.34V323.926C1102.34 317.987 1100.94 313.272 1098.15 309.778C1095.53 306.285 1091.86 304.539 1087.15 304.539C1076.84 304.539 1069.24 311.088 1064.35 324.188V404.617H1030.29V323.926C1030.29 317.987 1028.9 313.272 1026.1 309.778C1023.48 306.285 1019.82 304.539 1015.1 304.539C1004.79 304.539 997.197 311.088 992.307 324.188V404.617H958.249V319.472C958.249 314.756 957.288 310.914 955.367 307.945C953.62 304.975 950.389 301.744 945.673 298.251L968.466 278.34C978.945 283.405 985.844 290.042 989.163 298.251C997.372 284.977 1009.34 278.34 1025.05 278.34C1033.79 278.34 1041.12 280.174 1047.06 283.842C1053.17 287.335 1057.63 292.487 1060.42 299.299C1068.28 285.327 1080.51 278.34 1097.1 278.34ZM1310.22 278.34C1322.97 278.34 1332.66 282.008 1339.3 289.344C1346.11 296.679 1349.52 307.159 1349.52 320.782V404.617H1315.46V323.926C1315.46 317.987 1314.06 313.272 1311.27 309.778C1308.65 306.285 1304.98 304.539 1300.26 304.539C1289.96 304.539 1282.36 311.088 1277.47 324.188V404.617H1243.41V323.926C1243.41 317.987 1242.02 313.272 1239.22 309.778C1236.6 306.285 1232.93 304.539 1228.22 304.539C1217.91 304.539 1210.32 311.088 1205.43 324.188V404.617H1171.37V319.472C1171.37 314.756 1170.41 310.914 1168.49 307.945C1166.74 304.975 1163.51 301.744 1158.79 298.251L1181.58 278.34C1192.06 283.405 1198.96 290.042 1202.28 298.251C1210.49 284.977 1222.45 278.34 1238.17 278.34C1246.91 278.34 1254.24 280.174 1260.18 283.842C1266.29 287.335 1270.75 292.487 1273.54 299.299C1281.4 285.327 1293.63 278.34 1310.22 278.34ZM1434 382.086C1440.46 382.086 1445.7 381.3 1449.72 379.728C1453.74 377.982 1458.1 375.013 1462.82 370.821L1482.99 389.16C1472.86 401.561 1456.53 407.761 1434 407.761C1413.92 407.761 1399.42 404.006 1390.51 396.496C1381.6 388.811 1377.15 376.41 1377.15 359.294V321.83C1377.15 308.381 1381.95 297.815 1391.56 290.13C1401.34 282.27 1414.61 278.34 1431.38 278.34C1448.67 278.34 1462.21 282.532 1471.99 290.916C1481.77 299.124 1486.66 311.176 1486.66 327.07C1486.66 334.754 1485.96 340.693 1484.56 344.884C1483.34 349.076 1480.81 352.22 1476.97 354.316C1473.12 356.237 1467.54 357.198 1460.2 357.198H1410.95V359.556C1410.95 374.576 1418.63 382.086 1434 382.086ZM1431.38 304.015C1424.92 304.015 1419.85 305.936 1416.19 309.778C1412.69 313.446 1410.95 318.337 1410.95 324.45V333.881H1440.81C1445.35 333.881 1448.5 333.182 1450.24 331.785C1451.99 330.388 1452.86 327.943 1452.86 324.45C1452.86 317.813 1451.03 312.748 1447.36 309.255C1443.69 305.761 1438.37 304.015 1431.38 304.015ZM1579.48 278.34C1588.56 278.34 1596.24 280.785 1602.53 285.676L1594.15 313.97C1590.48 311.525 1586.99 309.778 1583.67 308.731C1580.35 307.683 1576.25 307.159 1571.35 307.159C1559.83 307.159 1551.53 314.844 1546.47 330.213V404.617H1512.41V319.472C1512.41 314.756 1511.45 310.914 1509.53 307.945C1507.78 304.975 1504.55 301.744 1499.83 298.251L1522.63 278.34C1528.56 281.484 1533.28 284.803 1536.77 288.296C1540.27 291.789 1542.8 295.981 1544.37 300.871C1547.86 294.059 1552.49 288.645 1558.26 284.628C1564.02 280.436 1571.09 278.34 1579.48 278.34ZM1665.79 407.761C1647.63 407.761 1633.65 403.569 1623.87 395.186C1614.09 386.802 1609.2 374.838 1609.2 359.294V326.808C1609.2 311.263 1614.09 299.299 1623.87 290.916C1633.65 282.532 1647.63 278.34 1665.79 278.34C1688.5 278.34 1704.74 285.239 1714.52 299.037L1691.2 317.9C1687.01 313.01 1683.17 309.604 1679.68 307.683C1676.18 305.587 1671.55 304.539 1665.79 304.539C1658.63 304.539 1653.04 306.46 1649.02 310.302C1645.18 314.145 1643.26 319.647 1643.26 326.808V359.294C1643.26 366.455 1645.18 371.956 1649.02 375.799C1653.04 379.641 1658.63 381.562 1665.79 381.562C1671.55 381.562 1676.18 380.602 1679.68 378.681C1683.17 376.585 1687.01 373.092 1691.2 368.201L1714.52 387.064C1709.63 394.05 1703.34 399.29 1695.66 402.783C1687.97 406.102 1678.02 407.761 1665.79 407.761ZM1755.6 264.979C1750.18 264.979 1745.56 263.058 1741.71 259.215C1737.87 255.373 1735.95 250.745 1735.95 245.33C1735.95 240.09 1737.87 235.549 1741.71 231.707C1745.56 227.69 1750.18 225.681 1755.6 225.681C1760.84 225.681 1765.38 227.69 1769.22 231.707C1773.24 235.549 1775.25 240.09 1775.25 245.33C1775.25 250.745 1773.24 255.373 1769.22 259.215C1765.38 263.058 1760.84 264.979 1755.6 264.979ZM1762.41 407.761C1753.5 403.22 1747.3 398.067 1743.81 392.304C1740.32 386.365 1738.57 378.157 1738.57 367.677V281.484H1772.63V366.629C1772.63 371.345 1773.5 375.187 1775.25 378.157C1777.17 381.126 1780.49 384.357 1785.2 387.85L1762.41 407.761ZM1913.94 366.629C1913.94 371.345 1914.81 375.187 1916.56 378.157C1918.48 381.126 1921.8 384.357 1926.51 387.85L1903.72 407.761C1893.77 402.696 1886.95 396.321 1883.29 388.636C1879.44 394.05 1874.2 398.591 1867.57 402.259C1860.93 405.927 1852.72 407.761 1842.94 407.761C1830.54 407.761 1820.67 404.617 1813.34 398.329C1806 391.867 1802.33 382.785 1802.33 371.083C1802.33 360.604 1805.04 352.569 1810.46 346.98C1816.04 341.217 1822.42 337.287 1829.58 335.191C1836.74 333.095 1844.69 331.611 1853.42 330.737L1866 329.427C1871.06 328.903 1874.55 328.03 1876.48 326.808C1878.57 325.585 1879.71 323.576 1879.88 320.782C1879.53 315.542 1877.79 311.088 1874.64 307.421C1871.67 303.753 1865.91 301.919 1857.35 301.919C1851.76 301.919 1846.87 302.967 1842.68 305.063C1838.49 307.159 1834.21 310.564 1829.84 315.28L1806.53 299.037C1811.59 292.4 1817.97 287.335 1825.65 283.842C1833.34 280.174 1843.9 278.34 1857.35 278.34C1895.08 278.34 1913.94 293.623 1913.94 324.188V366.629ZM1851.59 383.396C1860.67 383.396 1867.66 381.213 1872.55 376.847C1877.44 372.306 1879.88 366.804 1879.88 360.342V349.338C1877.09 350.386 1871.76 351.347 1863.9 352.22L1856.04 353.006C1850.1 353.53 1845.12 354.927 1841.11 357.198C1837.09 359.294 1835.08 363.311 1835.08 369.249C1835.08 373.79 1836.57 377.283 1839.54 379.728C1842.5 382.174 1846.52 383.396 1851.59 383.396ZM1968.88 407.761C1959.97 403.22 1953.77 398.067 1950.28 392.304C1946.79 386.365 1945.04 378.157 1945.04 367.677V249.26C1945.04 244.544 1944.08 240.702 1942.16 237.733C1940.41 234.763 1937.18 231.532 1932.47 228.039L1955.26 208.128C1964.17 212.669 1970.37 217.909 1973.86 223.847C1977.35 229.611 1979.1 237.733 1979.1 248.212V366.629C1979.1 371.345 1979.97 375.187 1981.72 378.157C1983.64 381.126 1986.96 384.357 1991.67 387.85L1968.88 407.761ZM2150.08 404.617C2127.73 404.617 2111.66 399.727 2101.88 389.946C2092.27 380.165 2087.47 366.018 2087.47 347.504V221.228H2124.41V347.504C2124.41 357.11 2126.5 364.271 2130.69 368.987C2134.89 373.528 2141.35 375.799 2150.08 375.799H2208.77V404.617H2150.08ZM2251.17 264.979C2245.75 264.979 2241.13 263.058 2237.28 259.215C2233.44 255.373 2231.52 250.745 2231.52 245.33C2231.52 240.09 2233.44 235.549 2237.28 231.707C2241.13 227.69 2245.75 225.681 2251.17 225.681C2256.41 225.681 2260.95 227.69 2264.79 231.707C2268.81 235.549 2270.82 240.09 2270.82 245.33C2270.82 250.745 2268.81 255.373 2264.79 259.215C2260.95 263.058 2256.41 264.979 2251.17 264.979ZM2257.98 407.761C2249.07 403.22 2242.87 398.067 2239.38 392.304C2235.89 386.365 2234.14 378.157 2234.14 367.677V281.484H2268.2V366.629C2268.2 371.345 2269.07 375.187 2270.82 378.157C2272.74 381.126 2276.06 384.357 2280.77 387.85L2257.98 407.761ZM2346.08 407.761C2336.3 407.761 2328.35 406.8 2322.24 404.879C2316.13 403.132 2311.24 400.687 2307.57 397.543C2303.9 394.4 2300.06 390.121 2296.04 384.706L2317.26 366.629C2321.8 372.218 2325.99 376.148 2329.84 378.419C2333.85 380.514 2339.27 381.562 2346.08 381.562C2353.59 381.562 2359 380.689 2362.32 378.943C2365.82 377.021 2367.56 374.052 2367.56 370.035C2367.56 366.193 2365.38 363.223 2361.01 361.128C2356.82 359.032 2348.52 356.936 2336.12 354.84C2311.67 350.124 2299.45 336.85 2299.45 315.018C2299.45 303.84 2303.9 294.933 2312.81 288.296C2321.71 281.659 2333.59 278.34 2348.44 278.34C2360.84 278.34 2370.62 280.174 2377.78 283.842C2385.12 287.335 2391.05 292.487 2395.59 299.299L2374.64 317.114C2370.09 312.573 2365.99 309.342 2362.32 307.421C2358.65 305.499 2354.03 304.539 2348.44 304.539C2337.26 304.539 2331.67 308.469 2331.67 316.328C2331.67 319.996 2333.5 322.79 2337.17 324.712C2341.01 326.633 2345.82 328.117 2351.58 329.165C2362.41 331.611 2370.97 334.143 2377.26 336.763C2383.72 339.208 2389.04 343.138 2393.24 348.552C2397.6 353.967 2399.79 361.39 2399.79 370.821C2399.79 383.396 2395.33 392.74 2386.42 398.853C2377.52 404.792 2364.07 407.761 2346.08 407.761ZM2457.5 307.683V358.508C2457.5 365.843 2458.63 370.996 2460.9 373.965C2463.17 376.934 2467.02 378.419 2472.43 378.419H2493.13V404.617H2472.43C2460.21 404.617 2450.51 403.132 2443.35 400.163C2436.37 397.194 2431.3 392.391 2428.16 385.754C2425.01 379.117 2423.44 370.035 2423.44 358.508V262.359C2423.44 257.643 2422.48 253.801 2420.56 250.832C2418.81 247.863 2415.58 244.632 2410.87 241.138L2433.66 221.228C2442.57 225.769 2448.77 231.008 2452.26 236.947C2455.75 242.71 2457.5 250.832 2457.5 261.311V281.484H2493.13V307.683H2457.5ZM2534.39 264.979C2528.97 264.979 2524.35 263.058 2520.5 259.215C2516.66 255.373 2514.74 250.745 2514.74 245.33C2514.74 240.09 2516.66 235.549 2520.5 231.707C2524.35 227.69 2528.97 225.681 2534.39 225.681C2539.63 225.681 2544.17 227.69 2548.01 231.707C2552.03 235.549 2554.04 240.09 2554.04 245.33C2554.04 250.745 2552.03 255.373 2548.01 259.215C2544.17 263.058 2539.63 264.979 2534.39 264.979ZM2541.2 407.761C2532.29 403.22 2526.09 398.067 2522.6 392.304C2519.11 386.365 2517.36 378.157 2517.36 367.677V281.484H2551.42V366.629C2551.42 371.345 2552.29 375.187 2554.04 378.157C2555.96 381.126 2559.28 384.357 2563.99 387.85L2541.2 407.761ZM2658.67 278.34C2672.12 278.34 2682.43 282.008 2689.59 289.344C2696.92 296.679 2700.59 307.159 2700.59 320.782V404.617H2666.53V323.926C2666.53 317.987 2664.87 313.272 2661.55 309.778C2658.41 306.285 2654.13 304.539 2648.72 304.539C2637.19 304.539 2628.89 311.35 2623.83 324.974V404.617H2589.77V319.472C2589.77 314.756 2588.81 310.914 2586.89 307.945C2585.14 304.975 2581.91 301.744 2577.2 298.251L2599.99 278.34C2605.58 281.135 2609.94 284.104 2613.09 287.248C2616.41 290.392 2618.94 294.059 2620.68 298.251C2624.35 292.313 2629.24 287.51 2635.36 283.842C2641.64 280.174 2649.42 278.34 2658.67 278.34ZM2862.47 298.251C2857.75 301.744 2854.44 304.975 2852.51 307.945C2850.77 310.914 2849.89 314.756 2849.89 319.472V408.285C2849.89 425.401 2845.18 437.802 2835.75 445.487C2826.49 453.172 2811.38 457.014 2790.42 457.014H2755.84V430.816H2790.42C2799.33 430.816 2805.79 429.069 2809.81 425.576C2813.83 422.083 2815.84 416.319 2815.84 408.285V388.636C2811.82 393.876 2806.93 397.893 2801.17 400.687C2795.58 403.307 2787.8 404.617 2777.85 404.617C2761.43 404.617 2748.33 399.203 2738.55 388.374C2728.95 377.371 2724.14 362.612 2724.14 344.099V338.859C2724.14 327.855 2726.15 317.813 2730.17 308.731C2734.18 299.474 2740.21 292.138 2748.24 286.724C2756.45 281.135 2766.32 278.34 2777.85 278.34C2795.66 278.34 2809.2 285.414 2818.46 299.561C2820.03 295.02 2822.47 291.09 2825.79 287.772C2829.29 284.453 2833.91 281.309 2839.68 278.34L2862.47 298.251ZM2787.8 378.419C2802.48 378.419 2811.82 371.258 2815.84 356.936V326.022C2811.82 311.7 2802.48 304.539 2787.8 304.539C2778.37 304.539 2771.04 307.945 2765.8 314.756C2760.73 321.393 2758.2 329.427 2758.2 338.859V344.099C2758.2 353.705 2760.73 361.826 2765.8 368.463C2770.86 375.1 2778.2 378.419 2787.8 378.419ZM2925.06 407.761C2915.28 407.761 2907.33 406.8 2901.22 404.879C2895.1 403.132 2890.21 400.687 2886.54 397.543C2882.88 394.4 2879.03 390.121 2875.02 384.706L2896.24 366.629C2900.78 372.218 2904.97 376.148 2908.81 378.419C2912.83 380.514 2918.24 381.562 2925.06 381.562C2932.57 381.562 2937.98 380.689 2941.3 378.943C2944.79 377.021 2946.54 374.052 2946.54 370.035C2946.54 366.193 2944.36 363.223 2939.99 361.128C2935.8 359.032 2927.5 356.936 2915.1 354.84C2890.65 350.124 2878.42 336.85 2878.42 315.018C2878.42 303.84 2882.88 294.933 2891.78 288.296C2900.69 281.659 2912.57 278.34 2927.41 278.34C2939.81 278.34 2949.6 280.174 2956.76 283.842C2964.09 287.335 2970.03 292.487 2974.57 299.299L2953.61 317.114C2949.07 312.573 2944.97 309.342 2941.3 307.421C2937.63 305.499 2933 304.539 2927.41 304.539C2916.24 304.539 2910.65 308.469 2910.65 316.328C2910.65 319.996 2912.48 322.79 2916.15 324.712C2919.99 326.633 2924.79 328.117 2930.56 329.165C2941.39 331.611 2949.94 334.143 2956.23 336.763C2962.69 339.208 2968.02 343.138 2972.21 348.552C2976.58 353.967 2978.76 361.39 2978.76 370.821C2978.76 383.396 2974.31 392.74 2965.4 398.853C2956.49 404.792 2943.05 407.761 2925.06 407.761Z" fill="#8EBEE0"/>
<path d="M2732.49 205.038V126.546H2770.28C2777.61 126.546 2783.92 127.742 2789.23 130.134C2794.61 132.527 2798.76 135.965 2801.68 140.45C2804.59 144.861 2806.05 150.094 2806.05 156.149C2806.05 162.204 2804.59 167.437 2801.68 171.847C2798.76 176.258 2794.61 179.696 2789.23 182.163C2783.92 184.555 2777.61 185.751 2770.28 185.751H2747.18L2758.96 174.426V205.038H2732.49ZM2758.96 177.341L2747.18 165.343H2768.6C2772.26 165.343 2774.95 164.521 2776.67 162.877C2778.47 161.232 2779.36 158.989 2779.36 156.149C2779.36 153.308 2778.47 151.066 2776.67 149.421C2774.95 147.776 2772.26 146.954 2768.6 146.954H2747.18L2758.96 134.956V177.341ZM2814.73 205.038V126.546H2852.52C2859.84 126.546 2866.16 127.742 2871.47 130.134C2876.85 132.527 2881 135.965 2883.91 140.45C2886.83 144.861 2888.29 150.094 2888.29 156.149C2888.29 162.204 2886.83 167.437 2883.91 171.847C2881 176.183 2876.85 179.509 2871.47 181.827C2866.16 184.144 2859.84 185.303 2852.52 185.303H2829.42L2841.19 174.426V205.038H2814.73ZM2861.71 205.038L2842.43 176.444H2870.46L2889.97 205.038H2861.71ZM2841.19 177.341L2829.42 165.343H2850.84C2854.5 165.343 2857.19 164.521 2858.91 162.877C2860.7 161.232 2861.6 158.989 2861.6 156.149C2861.6 153.308 2860.7 151.066 2858.91 149.421C2857.19 147.776 2854.5 146.954 2850.84 146.954H2829.42L2841.19 134.956V177.341ZM2939.43 206.832C2933.08 206.832 2927.17 205.823 2921.72 203.804C2916.33 201.786 2911.66 198.945 2907.7 195.282C2903.74 191.545 2900.64 187.172 2898.39 182.163C2896.22 177.155 2895.14 171.698 2895.14 165.792C2895.14 159.812 2896.22 154.355 2898.39 149.421C2900.64 144.412 2903.74 140.077 2907.7 136.414C2911.66 132.676 2916.33 129.798 2921.72 127.78C2927.17 125.761 2933.08 124.752 2939.43 124.752C2945.86 124.752 2951.77 125.761 2957.15 127.78C2962.53 129.798 2967.2 132.676 2971.17 136.414C2975.13 140.077 2978.19 144.412 2980.36 149.421C2982.6 154.355 2983.72 159.812 2983.72 165.792C2983.72 171.698 2982.6 177.155 2980.36 182.163C2978.19 187.172 2975.13 191.545 2971.17 195.282C2967.2 198.945 2962.53 201.786 2957.15 203.804C2951.77 205.823 2945.86 206.832 2939.43 206.832ZM2939.43 185.415C2941.9 185.415 2944.18 184.966 2946.27 184.069C2948.44 183.172 2950.31 181.901 2951.88 180.257C2953.52 178.538 2954.79 176.482 2955.69 174.09C2956.59 171.623 2957.04 168.857 2957.04 165.792C2957.04 162.727 2956.59 159.999 2955.69 157.606C2954.79 155.14 2953.52 153.084 2951.88 151.439C2950.31 149.72 2948.44 148.412 2946.27 147.515C2944.18 146.618 2941.9 146.169 2939.43 146.169C2936.97 146.169 2934.65 146.618 2932.48 147.515C2930.39 148.412 2928.52 149.72 2926.87 151.439C2925.3 153.084 2924.07 155.14 2923.17 157.606C2922.28 159.999 2921.83 162.727 2921.83 165.792C2921.83 168.857 2922.28 171.623 2923.17 174.09C2924.07 176.482 2925.3 178.538 2926.87 180.257C2928.52 181.901 2930.39 183.172 2932.48 184.069C2934.65 184.966 2936.97 185.415 2939.43 185.415Z" fill="#8EBEE0"/>
</svg>
