<svg width="4395" height="800" fill="none" xmlns="http://www.w3.org/2000/svg"><rect x=".514" y=".888" width="4394.12" height="798.626" rx="124" fill="#14213D"/><path fill-rule="evenodd" clip-rule="evenodd" d="M478.921 375.114c-40.783 4.122-76.919 28.853-95.131 65.107-3.112 6.196-7.674 17.536-7.231 17.978.123.123 2.309-1.883 4.859-4.457 16.288-16.448 39.63-27.312 64.893-30.203 9.568-1.095 25.923-.401 34.939 1.483 18.6 3.887 34.306 11.723 48.485 24.189 2.343 2.061 3.595 2.804 4.085 2.424.66-.512 19.697-15.517 34.367-27.089 9.22-7.273 11.463-9.168 11.463-9.684 0-.936-11.471-11.99-15.123-14.573-1.112-.787-2.385-1.767-2.827-2.178-1.662-1.542-7.573-5.313-13.201-8.423-13.783-7.615-29.28-12.577-44.836-14.357-4.86-.556-20.066-.689-24.742-.217Z" fill="#8EBEE0"/><path fill-rule="evenodd" clip-rule="evenodd" d="M435.034 452.98c-26.19 5.198-47.344 26.708-53.36 54.258-1.517 6.945-1.636 19.324-.25 26.026 3.598 17.4 12.013 32.385 27.033 48.133 8.392 8.8 18.008 15.729 29.998 21.616 8.869 4.355 17.282 7.242 27.209 9.337 9.649 2.036 27.98 2.594 38.727 1.177 18.445-2.429 36.79-9.284 51.898-19.391 8.089-5.412 18.109-13.879 21.919-18.523l1.973-2.406-6.525-5.161a16965.397 16965.397 0 0 1-20.79-16.496c-20.693-16.443-19.169-15.362-20.604-14.612-.676.354-2.933 2.081-5.015 3.84-4.575 3.864-14.826 9.102-21.252 10.858-6.425 1.757-23.577 1.918-29.403.276-18.52-5.215-32.291-16.704-39.999-33.37-3.562-7.7-4.983-14.38-5.046-23.718-.074-10.908 1.494-17.902 6.099-27.203 2.179-4.401 7.49-12.12 9.444-13.726.534-.439.972-1.028.972-1.308 0-.768-8.472-.512-13.028.393Z" fill="#8EBEE0"/><path fill="#8EBEE0" d="M318.271 346.604h36.814v295.931h-36.814z"/><path fill="#8EBEE0" d="M355.086 605.721v36.814H253.138v-36.814zM478.09 235.526l18.407 31.882-258.26 149.107-18.408-31.882z"/><path fill="#8EBEE0" d="m478.089 235.526-18.407 31.882 258.26 149.107 18.408-31.882zM480.319 157.867l18.407 31.882L207.235 358.04l-18.407-31.882z"/><path fill="#8EBEE0" d="m480.318 157.867-18.407 31.882L753.402 358.04l18.407-31.882zM637.906 346.604h-36.814v295.931h36.814z"/><path fill="#8EBEE0" d="M601.092 605.721v36.814H703.04v-36.814zM1027.16 574.97c-34.676 0-61.11-7.869-79.307-23.607-18.197-15.983-27.295-39.467-27.295-70.45v-78.934c0-30.983 9.098-54.344 27.295-70.081 18.197-15.984 44.631-23.975 79.307-23.975 24.09 0 43.77 4.057 59.01 12.172 15.49 7.868 27.79 19.795 36.89 35.778l-37.26 25.82c-7.62-11.804-15.61-20.287-23.97-25.451-8.12-5.164-19.67-7.746-34.67-7.746-18.94 0-32.832 4.549-41.684 13.648-8.607 8.852-12.91 22.13-12.91 39.835v78.934c0 17.705 4.303 31.106 12.91 40.205 8.852 8.852 22.744 13.278 41.684 13.278 16.23 0 28.77-2.705 37.62-8.114 9.1-5.656 17.21-14.631 24.34-26.926l36.89 27.294c-7.87 11.312-15.99 20.41-24.35 27.295-8.36 6.885-18.56 12.172-30.61 15.861-11.8 3.442-26.44 5.164-43.89 5.164Zm200.63 0c-25.57 0-45.24-5.902-59.01-17.705-13.77-11.803-20.66-28.647-20.66-50.532v-45.738c0-21.885 6.89-38.729 20.66-50.532 13.77-11.803 33.44-17.705 59.01-17.705 25.58 0 45.25 5.902 59.02 17.705 13.77 11.803 20.65 28.647 20.65 50.532v45.738c0 21.885-6.88 38.729-20.65 50.532-13.77 11.803-33.44 17.705-59.02 17.705Zm0-36.885c10.08 0 17.83-2.705 23.24-8.115 5.66-5.41 8.48-13.156 8.48-23.237v-45.738c0-10.082-2.82-17.828-8.48-23.237-5.41-5.41-13.16-8.115-23.24-8.115-10.08 0-17.95 2.705-23.6 8.115-5.41 5.409-8.12 13.155-8.12 23.237v45.738c0 10.081 2.71 17.827 8.12 23.237 5.65 5.41 13.52 8.115 23.6 8.115Zm317.06-145.327c17.95 0 31.6 5.164 40.94 15.492 9.59 10.327 14.38 25.081 14.38 44.262v118.031h-47.95V456.938c0-8.361-1.96-15-5.9-19.918-3.69-4.918-8.85-7.377-15.49-7.377-14.51 0-25.2 9.221-32.09 27.664v113.236h-47.95V456.938c0-8.361-1.97-15-5.9-19.918-3.69-4.918-8.85-7.377-15.49-7.377-14.51 0-25.21 9.221-32.09 27.664v113.236h-47.95V450.667c0-6.639-1.36-12.049-4.06-16.229-2.46-4.18-7.01-8.729-13.65-13.647l32.09-28.033c14.76 7.131 24.47 16.475 29.14 28.033 11.56-18.689 28.4-28.033 50.53-28.033 12.3 0 22.63 2.582 30.99 7.746 8.6 4.918 14.87 12.172 18.81 21.762 11.06-19.672 28.28-29.508 51.64-29.508Zm300.05 0c17.95 0 31.6 5.164 40.94 15.492 9.59 10.327 14.39 25.081 14.39 44.262v118.031h-47.96V456.938c0-8.361-1.96-15-5.9-19.918-3.69-4.918-8.85-7.377-15.49-7.377-14.51 0-25.2 9.221-32.09 27.664v113.236h-47.95V456.938c0-8.361-1.97-15-5.9-19.918-3.69-4.918-8.85-7.377-15.49-7.377-14.51 0-25.21 9.221-32.09 27.664v113.236h-47.95V450.667c0-6.639-1.35-12.049-4.06-16.229-2.46-4.18-7.01-8.729-13.65-13.647l32.09-28.033c14.76 7.131 24.47 16.475 29.14 28.033 11.56-18.689 28.4-28.033 50.53-28.033 12.3 0 22.63 2.582 30.99 7.746 8.6 4.918 14.87 12.172 18.81 21.762 11.06-19.672 28.28-29.508 51.64-29.508Zm174.27 146.064c9.1 0 16.48-1.106 22.13-3.319 5.66-2.459 11.8-6.64 18.44-12.541l28.41 25.819c-14.27 17.459-37.26 26.189-68.98 26.189-28.28 0-48.69-5.287-61.23-15.861-12.54-10.819-18.81-28.278-18.81-52.376v-52.746c0-18.934 6.76-33.811 20.29-44.631 13.77-11.065 32.46-16.598 56.06-16.598 24.35 0 43.4 5.902 57.17 17.705 13.77 11.557 20.66 28.524 20.66 50.901 0 10.82-.98 19.18-2.95 25.082-1.72 5.901-5.29 10.328-10.7 13.278-5.41 2.705-13.28 4.058-23.6 4.058h-69.35v3.319c0 21.148 10.82 31.721 32.46 31.721Zm-3.69-109.917c-9.1 0-16.23 2.705-21.39 8.115-4.92 5.164-7.38 12.049-7.38 20.656v13.278h42.05c6.39 0 10.82-.983 13.28-2.951 2.46-1.967 3.69-5.409 3.69-10.327 0-9.345-2.58-16.476-7.75-21.394-5.16-4.918-12.66-7.377-22.5-7.377Zm208.51-36.147c12.78 0 23.6 3.443 32.45 10.328l-11.8 39.836c-5.16-3.443-10.08-5.902-14.75-7.377-4.68-1.476-10.45-2.214-17.34-2.214-16.23 0-27.91 10.82-35.04 32.459v104.753h-47.95V450.667c0-6.639-1.35-12.049-4.06-16.229-2.46-4.18-7.01-8.729-13.64-13.647l32.09-28.033c8.36 4.426 15 9.098 19.91 14.016 4.92 4.918 8.49 10.82 10.7 17.705 4.92-9.59 11.43-17.213 19.55-22.869 8.11-5.901 18.07-8.852 29.88-8.852Zm121.52 182.212c-25.58 0-45.25-5.902-59.02-17.705-13.77-11.803-20.65-28.647-20.65-50.532v-45.738c0-21.885 6.88-38.729 20.65-50.532 13.77-11.803 33.44-17.705 59.02-17.705 31.96 0 54.83 9.713 68.6 29.139l-32.82 26.557c-5.91-6.885-11.32-11.68-16.23-14.385-4.92-2.951-11.44-4.426-19.55-4.426-10.08 0-17.95 2.705-23.61 8.115-5.41 5.409-8.11 13.155-8.11 23.237v45.738c0 10.081 2.7 17.827 8.11 23.237 5.66 5.41 13.53 8.115 23.61 8.115 8.11 0 14.63-1.353 19.55-4.058 4.91-2.95 10.32-7.868 16.23-14.754l32.82 26.558c-6.88 9.836-15.73 17.213-26.55 22.131-10.82 4.672-24.84 7.008-42.05 7.008Zm126.44-201.023c-7.63 0-14.14-2.705-19.55-8.115s-8.12-11.926-8.12-19.549c0-7.377 2.71-13.77 8.12-19.18 5.41-5.656 11.92-8.484 19.55-8.484 7.37 0 13.77 2.828 19.18 8.484 5.65 5.41 8.48 11.803 8.48 19.18 0 7.623-2.83 14.139-8.48 19.549-5.41 5.41-11.81 8.115-19.18 8.115Zm9.59 201.023c-12.54-6.394-21.27-13.648-26.19-21.762-4.92-8.361-7.38-19.918-7.38-34.672V397.184h47.95V517.06c0 6.64 1.23 12.049 3.69 16.23 2.71 4.18 7.38 8.729 14.02 13.647l-32.09 28.033Zm213.34-57.91c0 6.64 1.23 12.049 3.68 16.23 2.71 4.18 7.38 8.729 14.02 13.647l-32.09 28.033c-14.01-7.131-23.6-16.107-28.77-26.926-5.41 7.623-12.79 14.016-22.13 19.18s-20.9 7.746-34.67 7.746c-17.46 0-31.35-4.427-41.68-13.279-10.33-9.098-15.49-21.885-15.49-38.36 0-14.754 3.81-26.066 11.43-33.934 7.87-8.115 16.85-13.648 26.93-16.599 10.08-2.95 21.27-5.041 33.56-6.27l17.71-1.844c7.13-.738 12.05-1.968 14.75-3.689 2.95-1.721 4.55-4.549 4.8-8.483-.5-7.377-2.95-13.648-7.38-18.812-4.18-5.164-12.3-7.746-24.34-7.746-7.87 0-14.76 1.476-20.66 4.427-5.9 2.95-11.93 7.746-18.07 14.385l-32.83-22.869c7.13-9.344 16.1-16.475 26.92-21.393 10.82-5.164 25.7-7.746 44.64-7.746 53.11 0 79.67 21.516 79.67 64.549v59.753Zm-87.79 23.607c12.79 0 22.62-3.074 29.51-9.222 6.88-6.393 10.33-14.139 10.33-23.237v-15.492c-3.94 1.476-11.44 2.828-22.5 4.058l-11.07 1.106c-8.36.738-15.37 2.705-21.02 5.902-5.66 2.951-8.49 8.606-8.49 16.967 0 6.393 2.09 11.311 6.27 14.754 4.18 3.442 9.84 5.164 16.97 5.164Zm165.14 34.303c-12.54-6.394-21.27-13.648-26.19-21.762-4.92-8.361-7.37-19.918-7.37-34.672v-166.72c0-6.64-1.36-12.049-4.06-16.23-2.46-4.18-7.01-8.729-13.65-13.647l32.09-28.033c12.54 6.394 21.27 13.771 26.19 22.131 4.92 8.115 7.38 19.549 7.38 34.303v166.72c0 6.64 1.23 12.049 3.68 16.23 2.71 4.18 7.38 8.729 14.02 13.647l-32.09 28.033Zm255.11-4.427c-31.47 0-54.1-6.885-67.87-20.655-13.52-13.77-20.28-33.688-20.28-59.754V312.349h52.01v177.785c0 13.525 2.95 23.607 8.85 30.246 5.9 6.393 15 9.59 27.29 9.59h82.62v40.573h-82.62Zm142.32-196.596c-7.62 0-14.14-2.705-19.55-8.115s-8.11-11.926-8.11-19.549c0-7.377 2.7-13.77 8.11-19.18 5.41-5.656 11.93-8.484 19.55-8.484 7.38 0 13.77 2.828 19.18 8.484 5.66 5.41 8.49 11.803 8.49 19.18 0 7.623-2.83 14.139-8.49 19.549-5.41 5.41-11.8 8.115-19.18 8.115Zm9.59 201.023c-12.54-6.394-21.27-13.648-26.18-21.762-4.92-8.361-7.38-19.918-7.38-34.672V397.184h47.95V517.06c0 6.64 1.23 12.049 3.69 16.23 2.7 4.18 7.37 8.729 14.01 13.647l-32.09 28.033Zm124.04 0c-13.77 0-24.96-1.353-33.57-4.058-8.6-2.459-15.49-5.901-20.65-10.327-5.17-4.427-10.58-10.451-16.23-18.074l29.87-25.451c6.4 7.869 12.3 13.402 17.71 16.599 5.65 2.95 13.28 4.426 22.87 4.426 10.57 0 18.19-1.23 22.87-3.689 4.91-2.705 7.37-6.885 7.37-12.541 0-5.409-3.07-9.59-9.22-12.541-5.9-2.95-17.58-5.901-35.04-8.852-34.42-6.639-51.64-25.328-51.64-56.065 0-15.738 6.27-28.278 18.81-37.623 12.54-9.344 29.27-14.016 50.17-14.016 17.46 0 31.23 2.582 41.31 7.746 10.33 4.918 18.69 12.172 25.08 21.762l-29.51 25.082c-6.39-6.394-12.17-10.943-17.33-13.648-5.17-2.705-11.68-4.057-19.55-4.057-15.74 0-23.61 5.533-23.61 16.598 0 5.164 2.58 9.098 7.75 11.803 5.41 2.705 12.17 4.795 20.28 6.271 15.25 3.442 27.3 7.008 36.15 10.696 9.1 3.443 16.6 8.976 22.5 16.599 6.15 7.623 9.22 18.073 9.22 31.352 0 17.705-6.27 30.86-18.81 39.467-12.54 8.36-31.47 12.541-56.8 12.541Zm156.87-140.901v71.557c0 10.328 1.59 17.582 4.79 21.762s8.61 6.271 16.23 6.271h29.14v36.884h-29.14c-17.21 0-30.86-2.09-40.94-6.27-9.84-4.18-16.97-10.943-21.4-20.287-4.42-9.344-6.63-22.131-6.63-38.36V370.258c0-6.639-1.36-12.049-4.06-16.229-2.46-4.18-7.01-8.73-13.65-13.648l32.09-28.032c12.54 6.393 21.27 13.77 26.19 22.131 4.92 8.115 7.38 19.549 7.38 34.303v28.401h50.16v36.885h-50.16Zm108.25-60.122c-7.62 0-14.14-2.705-19.55-8.115s-8.11-11.926-8.11-19.549c0-7.377 2.7-13.77 8.11-19.18 5.41-5.656 11.93-8.484 19.55-8.484 7.38 0 13.77 2.828 19.18 8.484 5.66 5.41 8.48 11.803 8.48 19.18 0 7.623-2.82 14.139-8.48 19.549-5.41 5.41-11.8 8.115-19.18 8.115ZM3578 574.97c-12.54-6.394-21.27-13.648-26.19-21.762-4.92-8.361-7.38-19.918-7.38-34.672V397.184h47.96V517.06c0 6.64 1.22 12.049 3.68 16.23 2.71 4.18 7.38 8.729 14.02 13.647L3578 574.97Zm165.39-182.212c18.93 0 33.44 5.164 43.52 15.492 10.33 10.327 15.49 25.081 15.49 44.262v118.031h-47.95V456.938c0-8.361-2.33-15-7-19.918-4.43-4.918-10.45-7.377-18.08-7.377-16.23 0-27.91 9.59-35.04 28.77v112.13h-47.95V450.667c0-6.639-1.35-12.049-4.06-16.229-2.46-4.18-7-8.729-13.64-13.647l32.09-28.033c7.87 3.934 14.01 8.115 18.44 12.541 4.67 4.426 8.24 9.59 10.7 15.492 5.16-8.361 12.04-15.123 20.65-20.287 8.85-5.164 19.8-7.746 32.83-7.746Zm286.93 28.033c-6.64 4.918-11.32 9.467-14.02 13.647-2.46 4.18-3.69 9.59-3.69 16.229v125.04c0 24.099-6.64 41.557-19.92 52.377-13.03 10.82-34.3 16.229-63.81 16.229h-48.69v-36.885h48.69c12.54 0 21.64-2.459 27.3-7.377 5.65-4.918 8.48-13.032 8.48-24.344v-27.663c-5.65 7.377-12.54 13.032-20.65 16.967-7.87 3.688-18.82 5.532-32.83 5.532-23.12 0-41.56-7.622-55.33-22.868-13.52-15.492-20.29-36.27-20.29-62.336v-7.377c0-15.491 2.83-29.631 8.49-42.417 5.65-13.033 14.14-23.361 25.45-30.984 11.55-7.869 25.45-11.803 41.68-11.803 25.08 0 44.14 9.959 57.17 29.877 2.21-6.394 5.66-11.926 10.33-16.598 4.92-4.672 11.43-9.099 19.55-13.279l32.09 28.033Zm-105.13 112.868c20.66 0 33.82-10.082 39.47-30.246v-43.524c-5.65-20.164-18.81-30.246-39.47-30.246-13.27 0-23.6 4.795-30.98 14.385-7.13 9.344-10.7 20.656-10.7 33.934v7.377c0 13.525 3.57 24.959 10.7 34.303 7.13 9.344 17.46 14.017 30.98 14.017Zm193.24 41.311c-13.77 0-24.96-1.353-33.56-4.058-8.61-2.459-15.5-5.901-20.66-10.327-5.16-4.427-10.57-10.451-16.23-18.074l29.88-25.451c6.39 7.869 12.29 13.402 17.7 16.599 5.66 2.95 13.28 4.426 22.87 4.426 10.57 0 18.2-1.23 22.87-3.689 4.92-2.705 7.38-6.885 7.38-12.541 0-5.409-3.08-9.59-9.22-12.541-5.91-2.95-17.59-5.901-35.05-8.852-34.42-6.639-51.63-25.328-51.63-56.065 0-15.738 6.27-28.278 18.81-37.623 12.54-9.344 29.26-14.016 50.16-14.016 17.46 0 31.23 2.582 41.31 7.746 10.33 4.918 18.69 12.172 25.08 21.762l-29.5 25.082c-6.4-6.394-12.18-10.943-17.34-13.648s-11.68-4.057-19.55-4.057c-15.74 0-23.61 5.533-23.61 16.598 0 5.164 2.59 9.098 7.75 11.803 5.41 2.705 12.17 4.795 20.29 6.271 15.24 3.442 27.29 7.008 36.14 10.696 9.1 3.443 16.6 8.976 22.5 16.599 6.15 7.623 9.22 18.073 9.22 31.352 0 17.705-6.27 30.86-18.81 39.467-12.54 8.36-31.47 12.541-56.8 12.541ZM3847.32 288.859V178.351h53.2c10.32 0 19.21 1.684 26.68 5.051 7.58 3.368 13.42 8.21 17.53 14.524 4.1 6.21 6.15 13.577 6.15 22.102s-2.05 15.892-6.15 22.102c-4.11 6.209-9.95 11.05-17.53 14.524-7.47 3.367-16.36 5.051-26.68 5.051H3868l16.58-15.944v43.098h-37.26Zm37.26-38.994L3868 232.973h30.16c5.15 0 8.94-1.157 11.36-3.473 2.53-2.315 3.79-5.473 3.79-9.472 0-3.999-1.26-7.157-3.79-9.472-2.42-2.316-6.21-3.473-11.36-3.473H3868l16.58-16.892v59.674Zm78.52 38.994V178.351h53.21c10.31 0 19.2 1.684 26.67 5.051 7.58 3.368 13.42 8.21 17.53 14.524 4.1 6.21 6.16 13.577 6.16 22.102s-2.06 15.892-6.16 22.102c-4.11 6.104-9.95 10.787-17.53 14.05-7.47 3.263-16.36 4.894-26.67 4.894h-32.53l16.58-15.313v43.098h-37.26Zm66.15 0-27.15-40.257h39.46l27.47 40.257h-39.78Zm-28.89-38.994-16.58-16.892h30.16c5.15 0 8.94-1.157 11.36-3.473 2.53-2.315 3.79-5.473 3.79-9.472 0-3.999-1.26-7.157-3.79-9.472-2.42-2.316-6.21-3.473-11.36-3.473h-30.16l16.58-16.892v59.674Zm138.31 41.52c-8.94 0-17.26-1.421-24.94-4.263-7.58-2.841-14.16-6.841-19.73-11.998-5.58-5.262-9.95-11.419-13.11-18.47-3.05-7.052-4.58-14.735-4.58-23.049 0-8.42 1.53-16.103 4.58-23.049 3.16-7.052 7.53-13.156 13.11-18.313 5.57-5.262 12.15-9.314 19.73-12.156 7.68-2.842 16-4.262 24.94-4.262 9.05 0 17.37 1.42 24.95 4.262 7.57 2.842 14.15 6.894 19.73 12.156 5.58 5.157 9.89 11.261 12.94 18.313 3.16 6.946 4.74 14.629 4.74 23.049 0 8.314-1.58 15.997-4.74 23.049-3.05 7.051-7.36 13.208-12.94 18.47-5.58 5.157-12.16 9.157-19.73 11.998-7.58 2.842-15.9 4.263-24.95 4.263Zm0-30.153c3.48 0 6.69-.632 9.63-1.895 3.05-1.263 5.69-3.052 7.9-5.367 2.31-2.421 4.1-5.315 5.36-8.683 1.27-3.473 1.9-7.367 1.9-11.682s-.63-8.157-1.9-11.525c-1.26-3.473-3.05-6.367-5.36-8.682a21.928 21.928 0 0 0-7.9-5.526c-2.94-1.263-6.15-1.894-9.63-1.894-3.47 0-6.73.631-9.79 1.894-2.94 1.263-5.57 3.105-7.89 5.526-2.21 2.315-3.95 5.209-5.21 8.682-1.26 3.368-1.89 7.21-1.89 11.525s.63 8.209 1.89 11.682c1.26 3.368 3 6.262 5.21 8.683 2.32 2.315 4.95 4.104 7.89 5.367 3.06 1.263 6.32 1.895 9.79 1.895Z"/></svg>