<svg width="3122" height="568" viewBox="0 0 3122 568" fill="none" xmlns="http://www.w3.org/2000/svg">
<rect x="0.0546875" y="0.474121" width="3121.04" height="567.245" rx="88.0743" fill="#FF0000"/>
<path fill-rule="evenodd" clip-rule="evenodd" d="M339.857 266.278C310.89 269.206 285.223 286.772 272.288 312.522C270.077 316.922 266.837 324.977 267.152 325.291C267.239 325.378 268.792 323.953 270.603 322.125C282.172 310.443 298.752 302.727 316.695 300.673C323.491 299.895 335.107 300.388 341.512 301.726C354.722 304.487 365.878 310.053 375.949 318.907C377.613 320.371 378.503 320.899 378.85 320.629C379.32 320.265 392.841 309.608 403.261 301.388C409.809 296.222 411.403 294.876 411.403 294.51C411.403 293.845 403.255 285.994 400.661 284.159C399.872 283.6 398.967 282.904 398.653 282.612C397.472 281.517 393.274 278.838 389.277 276.63C379.487 271.221 368.48 267.696 357.431 266.432C353.979 266.037 343.178 265.942 339.857 266.278Z" fill="white"/>
<path fill-rule="evenodd" clip-rule="evenodd" d="M308.685 321.584C290.083 325.276 275.058 340.554 270.785 360.122C269.708 365.055 269.623 373.848 270.607 378.608C273.163 390.967 279.14 401.61 289.808 412.796C295.769 419.046 302.599 423.968 311.115 428.149C317.415 431.242 323.39 433.293 330.441 434.781C337.294 436.227 350.315 436.623 357.948 435.617C371.049 433.891 384.079 429.023 394.81 421.844C400.556 418 407.672 411.986 410.378 408.687L411.78 406.979L407.145 403.312C404.596 401.296 397.951 396.024 392.379 391.596C377.681 379.917 378.764 380.684 377.744 381.217C377.264 381.469 375.661 382.696 374.182 383.945C370.932 386.69 363.652 390.41 359.087 391.657C354.524 392.905 342.341 393.019 338.203 391.853C325.049 388.149 315.268 379.988 309.793 368.151C307.263 362.682 306.253 357.937 306.209 351.305C306.156 343.557 307.27 338.589 310.54 331.983C312.088 328.857 315.86 323.375 317.249 322.234C317.628 321.922 317.939 321.504 317.939 321.305C317.939 320.76 311.922 320.941 308.685 321.584Z" fill="white"/>
<rect x="225.752" y="246.028" width="26.1484" height="210.193" fill="white"/>
<rect x="251.9" y="430.072" width="26.1484" height="72.4109" transform="rotate(90 251.9 430.072)" fill="white"/>
<rect x="339.267" y="167.132" width="26.1484" height="211.815" transform="rotate(60 339.267 167.132)" fill="white"/>
<rect width="26.1484" height="211.815" transform="matrix(-0.5 0.866025 0.866025 0.5 339.267 167.132)" fill="white"/>
<rect x="340.851" y="111.973" width="26.1484" height="239.068" transform="rotate(60 340.851 111.973)" fill="white"/>
<rect width="26.1484" height="239.068" transform="matrix(-0.5 0.866025 0.866025 0.5 340.85 111.973)" fill="white"/>
<rect width="26.1484" height="210.193" transform="matrix(-1 0 0 1 452.78 246.028)" fill="white"/>
<rect width="26.1484" height="72.4109" transform="matrix(4.37114e-08 1 1 -4.37114e-08 426.632 430.072)" fill="white"/>
<path d="M729.255 408.064C704.628 408.064 685.852 402.475 672.928 391.297C660.003 379.945 653.541 363.265 653.541 341.258V285.193C653.541 263.187 660.003 246.594 672.928 235.416C685.852 224.063 704.628 218.387 729.255 218.387C746.371 218.387 760.344 221.269 771.172 227.033C782.176 232.622 790.908 241.092 797.371 252.445L770.91 270.784C765.496 262.401 759.82 256.375 753.881 252.707C748.118 249.039 739.909 247.205 729.255 247.205C715.806 247.205 705.938 250.437 699.65 256.899C693.537 263.187 690.481 272.618 690.481 285.193V341.258C690.481 353.833 693.537 363.352 699.65 369.814C705.938 376.102 715.806 379.246 729.255 379.246C740.782 379.246 749.69 377.325 755.977 373.482C762.439 369.465 768.203 363.09 773.268 354.357L799.467 373.744C793.878 381.778 788.114 388.241 782.176 393.131C776.237 398.021 768.989 401.777 760.431 404.396C752.047 406.842 741.655 408.064 729.255 408.064ZM871.762 408.064C853.598 408.064 839.625 403.872 829.845 395.489C820.064 387.105 815.173 375.141 815.173 359.597V327.111C815.173 311.566 820.064 299.602 829.845 291.219C839.625 282.835 853.598 278.644 871.762 278.644C889.927 278.644 903.899 282.835 913.68 291.219C923.461 299.602 928.351 311.566 928.351 327.111V359.597C928.351 375.141 923.461 387.105 913.68 395.489C903.899 403.872 889.927 408.064 871.762 408.064ZM871.762 381.866C878.923 381.866 884.425 379.945 888.267 376.102C892.284 372.26 894.293 366.758 894.293 359.597V327.111C894.293 319.95 892.284 314.448 888.267 310.606C884.425 306.763 878.923 304.842 871.762 304.842C864.601 304.842 859.012 306.763 854.995 310.606C851.153 314.448 849.232 319.95 849.232 327.111V359.597C849.232 366.758 851.153 372.26 854.995 376.102C859.012 379.945 864.601 381.866 871.762 381.866ZM1096.96 278.644C1109.71 278.644 1119.4 282.311 1126.04 289.647C1132.85 296.983 1136.26 307.462 1136.26 321.085V404.92H1102.2V324.229C1102.2 318.291 1100.8 313.575 1098.01 310.082C1095.39 306.589 1091.72 304.842 1087 304.842C1076.7 304.842 1069.1 311.392 1064.21 324.491V404.92H1030.15V324.229C1030.15 318.291 1028.76 313.575 1025.96 310.082C1023.34 306.589 1019.67 304.842 1014.96 304.842C1004.65 304.842 997.055 311.392 992.165 324.491V404.92H958.107V319.775C958.107 315.06 957.146 311.217 955.225 308.248C953.478 305.279 950.247 302.048 945.531 298.555L968.324 278.644C978.804 283.709 985.703 290.346 989.021 298.555C997.23 285.281 1009.19 278.644 1024.91 278.644C1033.65 278.644 1040.98 280.478 1046.92 284.145C1053.03 287.638 1057.49 292.791 1060.28 299.602C1068.14 285.63 1080.37 278.644 1096.96 278.644ZM1310.08 278.644C1322.83 278.644 1332.52 282.311 1339.16 289.647C1345.97 296.983 1349.38 307.462 1349.38 321.085V404.92H1315.32V324.229C1315.32 318.291 1313.92 313.575 1311.13 310.082C1308.51 306.589 1304.84 304.842 1300.12 304.842C1289.82 304.842 1282.22 311.392 1277.33 324.491V404.92H1243.27V324.229C1243.27 318.291 1241.87 313.575 1239.08 310.082C1236.46 306.589 1232.79 304.842 1228.08 304.842C1217.77 304.842 1210.17 311.392 1205.28 324.491V404.92H1171.23V319.775C1171.23 315.06 1170.26 311.217 1168.34 308.248C1166.6 305.279 1163.37 302.048 1158.65 298.555L1181.44 278.644C1191.92 283.709 1198.82 290.346 1202.14 298.555C1210.35 285.281 1222.31 278.644 1238.03 278.644C1246.76 278.644 1254.1 280.478 1260.04 284.145C1266.15 287.638 1270.61 292.791 1273.4 299.602C1281.26 285.63 1293.49 278.644 1310.08 278.644ZM1433.86 382.39C1440.32 382.39 1445.56 381.604 1449.58 380.032C1453.6 378.285 1457.96 375.316 1462.68 371.124L1482.85 389.463C1472.72 401.864 1456.39 408.064 1433.86 408.064C1413.77 408.064 1399.28 404.309 1390.37 396.799C1381.46 389.114 1377.01 376.713 1377.01 359.597V322.133C1377.01 308.685 1381.81 298.118 1391.42 290.433C1401.2 282.573 1414.47 278.644 1431.24 278.644C1448.53 278.644 1462.07 282.835 1471.85 291.219C1481.63 299.428 1486.52 311.479 1486.52 327.373C1486.52 335.058 1485.82 340.996 1484.42 345.188C1483.2 349.38 1480.67 352.523 1476.82 354.619C1472.98 356.541 1467.39 357.501 1460.06 357.501H1410.8V359.859C1410.8 374.879 1418.49 382.39 1433.86 382.39ZM1431.24 304.318C1424.78 304.318 1419.71 306.239 1416.04 310.082C1412.55 313.75 1410.8 318.64 1410.8 324.753V334.184H1440.67C1445.21 334.184 1448.36 333.486 1450.1 332.089C1451.85 330.691 1452.72 328.246 1452.72 324.753C1452.72 318.116 1450.89 313.051 1447.22 309.558C1443.55 306.065 1438.23 304.318 1431.24 304.318ZM1579.33 278.644C1588.42 278.644 1596.1 281.089 1602.39 285.979L1594.01 314.274C1590.34 311.828 1586.84 310.082 1583.53 309.034C1580.21 307.986 1576.1 307.462 1571.21 307.462C1559.69 307.462 1551.39 315.147 1546.32 330.517V404.92H1512.27V319.775C1512.27 315.06 1511.31 311.217 1509.38 308.248C1507.64 305.279 1504.41 302.048 1499.69 298.555L1522.48 278.644C1528.42 281.787 1533.14 285.106 1536.63 288.599C1540.12 292.092 1542.66 296.284 1544.23 301.174C1547.72 294.363 1552.35 288.948 1558.11 284.931C1563.88 280.74 1570.95 278.644 1579.33 278.644ZM1665.65 408.064C1647.48 408.064 1633.51 403.872 1623.73 395.489C1613.95 387.105 1609.06 375.141 1609.06 359.597V327.111C1609.06 311.566 1613.95 299.602 1623.73 291.219C1633.51 282.835 1647.48 278.644 1665.65 278.644C1688.35 278.644 1704.6 285.543 1714.38 299.34L1691.06 318.203C1686.87 313.313 1683.03 309.907 1679.53 307.986C1676.04 305.89 1671.41 304.842 1665.65 304.842C1658.49 304.842 1652.9 306.763 1648.88 310.606C1645.04 314.448 1643.12 319.95 1643.12 327.111V359.597C1643.12 366.758 1645.04 372.26 1648.88 376.102C1652.9 379.945 1658.49 381.866 1665.65 381.866C1671.41 381.866 1676.04 380.905 1679.53 378.984C1683.03 376.888 1686.87 373.395 1691.06 368.504L1714.38 387.367C1709.49 394.354 1703.2 399.593 1695.51 403.087C1687.83 406.405 1677.87 408.064 1665.65 408.064ZM1755.46 265.282C1750.04 265.282 1745.41 263.361 1741.57 259.519C1737.73 255.676 1735.81 251.048 1735.81 245.634C1735.81 240.394 1737.73 235.853 1741.57 232.01C1745.41 227.993 1750.04 225.985 1755.46 225.985C1760.7 225.985 1765.24 227.993 1769.08 232.01C1773.1 235.853 1775.1 240.394 1775.1 245.634C1775.1 251.048 1773.1 255.676 1769.08 259.519C1765.24 263.361 1760.7 265.282 1755.46 265.282ZM1762.27 408.064C1753.36 403.523 1747.16 398.371 1743.67 392.607C1740.17 386.669 1738.43 378.46 1738.43 367.981V281.787H1772.49V366.933C1772.49 371.648 1773.36 375.491 1775.1 378.46C1777.03 381.429 1780.34 384.66 1785.06 388.153L1762.27 408.064ZM1913.8 366.933C1913.8 371.648 1914.67 375.491 1916.42 378.46C1918.34 381.429 1921.66 384.66 1926.37 388.153L1903.58 408.064C1893.62 402.999 1886.81 396.624 1883.15 388.939C1879.3 394.354 1874.06 398.895 1867.43 402.563C1860.79 406.23 1852.58 408.064 1842.8 408.064C1830.4 408.064 1820.53 404.92 1813.2 398.633C1805.86 392.17 1802.19 383.088 1802.19 371.386C1802.19 360.907 1804.9 352.873 1810.31 347.284C1815.9 341.52 1822.28 337.59 1829.44 335.494C1836.6 333.399 1844.55 331.914 1853.28 331.041L1865.85 329.731C1870.92 329.207 1874.41 328.333 1876.33 327.111C1878.43 325.888 1879.56 323.88 1879.74 321.085C1879.39 315.846 1877.64 311.392 1874.5 307.724C1871.53 304.056 1865.77 302.222 1857.21 302.222C1851.62 302.222 1846.73 303.27 1842.54 305.366C1838.35 307.462 1834.07 310.868 1829.7 315.584L1806.38 299.34C1811.45 292.704 1817.82 287.638 1825.51 284.145C1833.19 280.478 1843.76 278.644 1857.21 278.644C1894.93 278.644 1913.8 293.926 1913.8 324.491V366.933ZM1851.44 383.7C1860.53 383.7 1867.51 381.516 1872.4 377.15C1877.29 372.609 1879.74 367.107 1879.74 360.645V349.642C1876.94 350.69 1871.62 351.65 1863.76 352.523L1855.9 353.309C1849.96 353.833 1844.98 355.231 1840.97 357.501C1836.95 359.597 1834.94 363.614 1834.94 369.552C1834.94 374.094 1836.42 377.587 1839.39 380.032C1842.36 382.477 1846.38 383.7 1851.44 383.7ZM1968.74 408.064C1959.83 403.523 1953.63 398.371 1950.14 392.607C1946.65 386.669 1944.9 378.46 1944.9 367.981V249.563C1944.9 244.848 1943.94 241.005 1942.02 238.036C1940.27 235.067 1937.04 231.836 1932.32 228.343L1955.12 208.432C1964.02 212.973 1970.23 218.212 1973.72 224.151C1977.21 229.914 1978.96 238.036 1978.96 248.515V366.933C1978.96 371.648 1979.83 375.491 1981.58 378.46C1983.5 381.429 1986.82 384.66 1991.53 388.153L1968.74 408.064ZM2149.94 404.92C2127.58 404.92 2111.52 400.03 2101.73 390.249C2092.13 380.468 2087.33 366.321 2087.33 347.808V221.531H2124.27V347.808C2124.27 357.414 2126.36 364.575 2130.55 369.29C2134.74 373.832 2141.21 376.102 2149.94 376.102H2208.62V404.92H2149.94ZM2251.03 265.282C2245.61 265.282 2240.98 263.361 2237.14 259.519C2233.3 255.676 2231.38 251.048 2231.38 245.634C2231.38 240.394 2233.3 235.853 2237.14 232.01C2240.98 227.993 2245.61 225.985 2251.03 225.985C2256.27 225.985 2260.81 227.993 2264.65 232.01C2268.67 235.853 2270.68 240.394 2270.68 245.634C2270.68 251.048 2268.67 255.676 2264.65 259.519C2260.81 263.361 2256.27 265.282 2251.03 265.282ZM2257.84 408.064C2248.93 403.523 2242.73 398.371 2239.24 392.607C2235.74 386.669 2234 378.46 2234 367.981V281.787H2268.06V366.933C2268.06 371.648 2268.93 375.491 2270.68 378.46C2272.6 381.429 2275.92 384.66 2280.63 388.153L2257.84 408.064ZM2345.94 408.064C2336.16 408.064 2328.21 407.104 2322.1 405.182C2315.98 403.436 2311.09 400.991 2307.43 397.847C2303.76 394.703 2299.92 390.424 2295.9 385.01L2317.12 366.933C2321.66 372.522 2325.85 376.451 2329.69 378.722C2333.71 380.818 2339.13 381.866 2345.94 381.866C2353.45 381.866 2358.86 380.992 2362.18 379.246C2365.67 377.325 2367.42 374.355 2367.42 370.338C2367.42 366.496 2365.24 363.527 2360.87 361.431C2356.68 359.335 2348.38 357.239 2335.98 355.143C2311.53 350.428 2299.3 337.154 2299.3 315.322C2299.3 304.144 2303.76 295.236 2312.67 288.599C2321.57 281.962 2333.45 278.644 2348.3 278.644C2360.7 278.644 2370.48 280.478 2377.64 284.145C2384.97 287.638 2390.91 292.791 2395.45 299.602L2374.49 317.417C2369.95 312.876 2365.85 309.645 2362.18 307.724C2358.51 305.803 2353.88 304.842 2348.3 304.842C2337.12 304.842 2331.53 308.772 2331.53 316.631C2331.53 320.299 2333.36 323.094 2337.03 325.015C2340.87 326.936 2345.68 328.421 2351.44 329.469C2362.27 331.914 2370.83 334.446 2377.11 337.066C2383.58 339.511 2388.9 343.441 2393.09 348.856C2397.46 354.27 2399.64 361.693 2399.64 371.124C2399.64 383.7 2395.19 393.044 2386.28 399.157C2377.38 405.095 2363.93 408.064 2345.94 408.064ZM2457.36 307.986V358.811C2457.36 366.147 2458.49 371.299 2460.76 374.268C2463.03 377.237 2466.88 378.722 2472.29 378.722H2492.99V404.92H2472.29C2460.06 404.92 2450.37 403.436 2443.21 400.467C2436.22 397.498 2431.16 392.694 2428.01 386.057C2424.87 379.421 2423.3 370.338 2423.3 358.811V262.663C2423.3 257.947 2422.34 254.104 2420.42 251.135C2418.67 248.166 2415.44 244.935 2410.72 241.442L2433.52 221.531C2442.42 226.072 2448.62 231.312 2452.12 237.25C2455.61 243.014 2457.36 251.135 2457.36 261.615V281.787H2492.99V307.986H2457.36ZM2534.25 265.282C2528.83 265.282 2524.2 263.361 2520.36 259.519C2516.52 255.676 2514.6 251.048 2514.6 245.634C2514.6 240.394 2516.52 235.853 2520.36 232.01C2524.2 227.993 2528.83 225.985 2534.25 225.985C2539.49 225.985 2544.03 227.993 2547.87 232.01C2551.89 235.853 2553.9 240.394 2553.9 245.634C2553.9 251.048 2551.89 255.676 2547.87 259.519C2544.03 263.361 2539.49 265.282 2534.25 265.282ZM2541.06 408.064C2532.15 403.523 2525.95 398.371 2522.46 392.607C2518.96 386.669 2517.22 378.46 2517.22 367.981V281.787H2551.28V366.933C2551.28 371.648 2552.15 375.491 2553.9 378.46C2555.82 381.429 2559.14 384.66 2563.85 388.153L2541.06 408.064ZM2658.53 278.644C2671.98 278.644 2682.28 282.311 2689.44 289.647C2696.78 296.983 2700.45 307.462 2700.45 321.085V404.92H2666.39V324.229C2666.39 318.291 2664.73 313.575 2661.41 310.082C2658.27 306.589 2653.99 304.842 2648.58 304.842C2637.05 304.842 2628.75 311.654 2623.69 325.277V404.92H2589.63V319.775C2589.63 315.06 2588.67 311.217 2586.75 308.248C2585 305.279 2581.77 302.048 2577.05 298.555L2599.85 278.644C2605.43 281.438 2609.8 284.407 2612.95 287.551C2616.26 290.695 2618.8 294.363 2620.54 298.555C2624.21 292.616 2629.1 287.813 2635.21 284.145C2641.5 280.478 2649.27 278.644 2658.53 278.644ZM2862.33 298.555C2857.61 302.048 2854.29 305.279 2852.37 308.248C2850.63 311.217 2849.75 315.06 2849.75 319.775V408.588C2849.75 425.705 2845.04 438.105 2835.61 445.79C2826.35 453.475 2811.24 457.317 2790.28 457.317H2755.7V431.119H2790.28C2799.19 431.119 2805.65 429.372 2809.67 425.879C2813.69 422.386 2815.69 416.622 2815.69 408.588V388.939C2811.68 394.179 2806.79 398.196 2801.02 400.991C2795.43 403.61 2787.66 404.92 2777.71 404.92C2761.29 404.92 2748.19 399.506 2738.41 388.677C2728.8 377.674 2724 362.915 2724 344.402V339.162C2724 328.159 2726.01 318.116 2730.03 309.034C2734.04 299.777 2740.07 292.442 2748.1 287.027C2756.31 281.438 2766.18 278.644 2777.71 278.644C2795.52 278.644 2809.06 285.717 2818.31 299.864C2819.89 295.323 2822.33 291.394 2825.65 288.075C2829.14 284.757 2833.77 281.613 2839.54 278.644L2862.33 298.555ZM2787.66 378.722C2802.33 378.722 2811.68 371.561 2815.69 357.239V326.325C2811.68 312.003 2802.33 304.842 2787.66 304.842C2778.23 304.842 2770.9 308.248 2765.66 315.06C2760.59 321.697 2758.06 329.731 2758.06 339.162V344.402C2758.06 354.008 2760.59 362.13 2765.66 368.766C2770.72 375.403 2778.06 378.722 2787.66 378.722ZM2924.91 408.064C2915.13 408.064 2907.19 407.104 2901.07 405.182C2894.96 403.436 2890.07 400.991 2886.4 397.847C2882.73 394.703 2878.89 390.424 2874.87 385.01L2896.1 366.933C2900.64 372.522 2904.83 376.451 2908.67 378.722C2912.69 380.818 2918.1 381.866 2924.91 381.866C2932.42 381.866 2937.84 380.992 2941.16 379.246C2944.65 377.325 2946.4 374.355 2946.4 370.338C2946.4 366.496 2944.21 363.527 2939.85 361.431C2935.66 359.335 2927.36 357.239 2914.96 355.143C2890.51 350.428 2878.28 337.154 2878.28 315.322C2878.28 304.144 2882.73 295.236 2891.64 288.599C2900.55 281.962 2912.43 278.644 2927.27 278.644C2939.67 278.644 2949.45 280.478 2956.61 284.145C2963.95 287.638 2969.89 292.791 2974.43 299.602L2953.47 317.417C2948.93 312.876 2944.82 309.645 2941.16 307.724C2937.49 305.803 2932.86 304.842 2927.27 304.842C2916.09 304.842 2910.5 308.772 2910.5 316.631C2910.5 320.299 2912.34 323.094 2916.01 325.015C2919.85 326.936 2924.65 328.421 2930.42 329.469C2941.24 331.914 2949.8 334.446 2956.09 337.066C2962.55 339.511 2967.88 343.441 2972.07 348.856C2976.44 354.27 2978.62 361.693 2978.62 371.124C2978.62 383.7 2974.17 393.044 2965.26 399.157C2956.35 405.095 2942.9 408.064 2924.91 408.064Z" fill="white"/>
<path d="M2732.35 205.341V126.849H2770.14C2777.47 126.849 2783.78 128.045 2789.09 130.438C2794.47 132.83 2798.62 136.268 2801.54 140.754C2804.45 145.164 2805.91 150.397 2805.91 156.452C2805.91 162.507 2804.45 167.74 2801.54 172.15C2798.62 176.561 2794.47 179.999 2789.09 182.466C2783.78 184.858 2777.47 186.054 2770.14 186.054H2747.04L2758.81 174.729V205.341H2732.35ZM2758.81 177.645L2747.04 165.647H2768.46C2772.12 165.647 2774.81 164.824 2776.53 163.18C2778.32 161.535 2779.22 159.293 2779.22 156.452C2779.22 153.611 2778.32 151.369 2776.53 149.724C2774.81 148.079 2772.12 147.257 2768.46 147.257H2747.04L2758.81 135.259V177.645ZM2814.59 205.341V126.849H2852.38C2859.7 126.849 2866.02 128.045 2871.33 130.438C2876.71 132.83 2880.86 136.268 2883.77 140.754C2886.69 145.164 2888.15 150.397 2888.15 156.452C2888.15 162.507 2886.69 167.74 2883.77 172.15C2880.86 176.486 2876.71 179.812 2871.33 182.13C2866.02 184.447 2859.7 185.606 2852.38 185.606H2829.28L2841.05 174.729V205.341H2814.59ZM2861.57 205.341L2842.28 176.748H2870.32L2889.83 205.341H2861.57ZM2841.05 177.645L2829.28 165.647H2850.69C2854.36 165.647 2857.05 164.824 2858.77 163.18C2860.56 161.535 2861.46 159.293 2861.46 156.452C2861.46 153.611 2860.56 151.369 2858.77 149.724C2857.05 148.079 2854.36 147.257 2850.69 147.257H2829.28L2841.05 135.259V177.645ZM2939.29 207.135C2932.94 207.135 2927.03 206.126 2921.57 204.107C2916.19 202.089 2911.52 199.248 2907.56 195.585C2903.6 191.848 2900.49 187.475 2898.25 182.466C2896.08 177.458 2895 172.001 2895 166.095C2895 160.115 2896.08 154.658 2898.25 149.724C2900.49 144.716 2903.6 140.38 2907.56 136.717C2911.52 132.979 2916.19 130.101 2921.57 128.083C2927.03 126.064 2932.94 125.055 2939.29 125.055C2945.72 125.055 2951.62 126.064 2957.01 128.083C2962.39 130.101 2967.06 132.979 2971.02 136.717C2974.99 140.38 2978.05 144.716 2980.22 149.724C2982.46 154.658 2983.58 160.115 2983.58 166.095C2983.58 172.001 2982.46 177.458 2980.22 182.466C2978.05 187.475 2974.99 191.848 2971.02 195.585C2967.06 199.248 2962.39 202.089 2957.01 204.107C2951.62 206.126 2945.72 207.135 2939.29 207.135ZM2939.29 185.718C2941.76 185.718 2944.04 185.269 2946.13 184.372C2948.3 183.475 2950.17 182.205 2951.74 180.56C2953.38 178.841 2954.65 176.785 2955.55 174.393C2956.45 171.926 2956.89 169.16 2956.89 166.095C2956.89 163.03 2956.45 160.302 2955.55 157.91C2954.65 155.443 2953.38 153.387 2951.74 151.742C2950.17 150.023 2948.3 148.715 2946.13 147.818C2944.04 146.921 2941.76 146.472 2939.29 146.472C2936.82 146.472 2934.51 146.921 2932.34 147.818C2930.25 148.715 2928.38 150.023 2926.73 151.742C2925.16 153.387 2923.93 155.443 2923.03 157.91C2922.13 160.302 2921.69 163.03 2921.69 166.095C2921.69 169.16 2922.13 171.926 2923.03 174.393C2923.93 176.785 2925.16 178.841 2926.73 180.56C2928.38 182.205 2930.25 183.475 2932.34 184.372C2934.51 185.269 2936.82 185.718 2939.29 185.718Z" fill="white"/>
</svg>
